# xmcd
#
# Track frame offsets:
#	150
#	19568
#	33005
#	62426
#	83141
#	106587
#	123020
#	137005
#	150647
#	175674
#	192772
#	209851
#	225724
#
# Disc length: 3347 seconds
#
# Revision: 1
# Processed by: cddbd v1.4PL0 Copyright (c) Steve Scherf et al.
# Submitted via: audiograbber 1.81.03
#
DISCID=960d110d
DTITLE=Mojo Buford - Home Is Where My Harps Is
DYEAR=1998
DGENRE=Blues
TTITLE0=Mo's Boogie
TTITLE1=Pickin' Rags
TTITLE2=Cool and Mo Better Blues
TTITLE3=I Want You To Be My Girl
TTITLE4=You Can Steal My Chicken
TTITLE5=Gonna Get A Watchdog
TTITLE6=Harp Breaker
TTITLE7=All Over The World
TTITLE8=Trouble Don't Always Last
TTITLE9=Don't Go No Further
TTITLE10=Memphis Bound
TTITLE11=Evilina
TTITLE12=Shame
EXTD=
EXTT0=
EXTT1=
EXTT2=
EXTT3=
EXTT4=
EXTT5=
EXTT6=
EXTT7=
EXTT8=
EXTT9=
EXTT10=
EXTT11=
EXTT12=
PLAYORDER=
